<?xml version="1.0" encoding="utf-8"?>
<!-- Generator: Adobe Illustrator 23.0.1, SVG Export Plug-In . SVG Version: 6.00 Build 0)  -->
<svg version="1.1" id="Layer_1" xmlns="http://www.w3.org/2000/svg" xmlns:xlink="http://www.w3.org/1999/xlink" x="0px" y="0px"
	 viewBox="0 0 103.11 103.11" style="enable-background:new 0 0 103.11 103.11;" xml:space="preserve">
<style type="text/css">
	.st0{fill:#6868A0;}
	.st1{fill:none;stroke:#6868A0;stroke-width:5;stroke-miterlimit:10;}
	.st2{fill:#010101;}
</style>
<g>
	<g>
		<path class="st0" d="M46.57,22.25c-0.1,11.8,0.8,23.9-0.1,35.6c-0.3,4-1.4,8-4.3,10.8c-4.1,3.9-9.1,2.7-12.5-1.1
			c-4-4.6-5.5-11-6.3-16.8c-0.1-0.8-1.3-0.5-1.2,0.3c1.2,8.6,9.2,29.8,20.9,18.5c5.3-5.1,4.8-13,4.8-19.7c0-9.2-0.1-18.4,0-27.6
			C47.77,21.45,46.57,21.45,46.57,22.25L46.57,22.25z"/>
	</g>
</g>
<g>
	<g>
		<path class="st0" d="M59.57,24.95c-0.1,15,0.1,30,0,44.9c0,0.8,1.2,0.8,1.2,0c0.1-15-0.1-30,0-44.9
			C60.87,24.05,59.67,24.05,59.57,24.95L59.57,24.95z"/>
	</g>
</g>
<g>
	<g>
		<path class="st0" d="M60.27,24.15c2.9,0.1,5.4,1.4,8.2,1.9c3.5,0.7,5.7,1.4,8.6,3.8c5.2,4.3,6,10.3,6.5,16.8
			c0.4,6.1-0.8,13-5.5,17.3c-4,3.7-12.3,6.2-17.5,5.2c-0.8-0.1-1.1,1-0.3,1.2c5.6,1.1,13.3-1.1,17.7-4.7c5.1-4.2,7.1-10.8,7-17.2
			c-0.1-6.9-1-14.2-6.4-19c-2.5-2.3-5-3.8-8.4-4.5c-3.3-0.6-6.5-2-9.8-2.1C59.47,22.95,59.47,24.15,60.27,24.15L60.27,24.15z"/>
	</g>
</g>
<g>
	<g>
		<path class="st0" d="M42.17,25.55c1.7-0.9,3.4-1.9,5-2.8c0.7-0.4,0.1-1.5-0.6-1.1c-1.7,0.9-3.4,1.9-5,2.8
			C40.87,24.85,41.47,25.95,42.17,25.55L42.17,25.55z"/>
	</g>
</g>
<g>
	<g>
		<path class="st0" d="M17.97,54.25c1.7-0.9,3.4-1.9,5-2.8c0.7-0.4,0.1-1.5-0.6-1.1c-1.7,0.9-3.4,1.9-5,2.8
			C16.67,53.55,17.27,54.65,17.97,54.25L17.97,54.25z"/>
	</g>
</g>
<g>
	<g>
		<path class="st0" d="M55.57,26.95c1.7-0.9,3.4-1.9,5-2.8c0.7-0.4,0.1-1.5-0.6-1.1c-1.7,0.9-3.4,1.9-5,2.8
			C54.27,26.25,54.87,27.35,55.57,26.95L55.57,26.95z"/>
	</g>
</g>
<g>
	<g>
		<path class="st0" d="M55.57,73.85c1.7-0.9,3.4-1.9,5-2.8c0.7-0.4,0.1-1.5-0.6-1.1c-1.7,0.9-3.4,1.9-5,2.8
			C54.27,73.15,54.87,74.25,55.57,73.85L55.57,73.85z"/>
	</g>
</g>
<ellipse class="st1" cx="52.01" cy="51.66" rx="46.4" ry="46.4"/>
<g>
	<g>
		<path class="st2" d="M39.67,27.05c0,11.4,1.4,23.5-0.1,34.9c-0.9,6.7-8,15.3-14.4,8c-3.5-4-5-9.8-5.6-14.9c-0.3-2.4-4.1-2.4-3.8,0
			c1.3,9.7,8.4,28.4,21.3,19.1c5.7-4,6.4-11.1,6.5-17.5c0.1-9.9-0.2-19.7-0.2-29.5C43.47,24.65,39.67,24.65,39.67,27.05L39.67,27.05
			z"/>
	</g>
</g>
<g>
	<g>
		<path class="st2" d="M52.67,28.75c-0.1,15.1-0.2,30.1-0.3,45.2c0,2.4,3.7,2.4,3.8,0c0.1-15.1,0.2-30.1,0.3-45.2
			C56.47,26.35,52.77,26.35,52.67,28.75L52.67,28.75z"/>
	</g>
</g>
<g>
	<g>
		<path class="st2" d="M54.87,30.35c5.9-0.2,11.7,0.1,16.4,3.9c4.8,3.9,5.5,9.1,6,15c1.1,13-8.5,26.3-22.7,23.6
			c-2.4-0.4-3.4,3.2-1,3.6c15.5,2.9,28.3-10.2,27.6-25.4c-0.3-6.6-1.1-13.7-6.1-18.5c-5.7-5.4-12.4-6.3-20.1-6
			C52.47,26.65,52.47,30.45,54.87,30.35L54.87,30.35z"/>
	</g>
</g>
</svg>
