<?xml version="1.0" encoding="utf-8"?>
<!-- Generator: Adobe Illustrator 23.0.1, SVG Export Plug-In . SVG Version: 6.00 Build 0)  -->
<svg version="1.1" id="Layer_1" xmlns="http://www.w3.org/2000/svg" xmlns:xlink="http://www.w3.org/1999/xlink" x="0px" y="0px"
	 viewBox="0 0 595.3 841.9" style="enable-background:new 0 0 595.3 841.9;" xml:space="preserve">
<style type="text/css">
	.st0{fill:#67679F;}
	.st1{fill:none;stroke:#67679F;stroke-width:5;stroke-miterlimit:10;}
</style>
<g>
	<g>
		<path class="st0" d="M292,391.3c-0.1,11.8,0.8,23.9-0.1,35.6c-0.3,4-1.4,8-4.3,10.8c-4.1,3.9-9.1,2.7-12.5-1.1
			c-4-4.6-5.5-11-6.3-16.8c-0.1-0.8-1.3-0.5-1.2,0.3c1.2,8.6,9.2,29.8,20.9,18.5c5.3-5.1,4.8-13,4.8-19.7c0-9.2-0.1-18.4,0-27.6
			C293.2,390.5,292,390.5,292,391.3L292,391.3z"/>
	</g>
</g>
<g>
	<g>
		<path class="st0" d="M305,394c-0.1,15,0.1,30,0,44.9c0,0.8,1.2,0.8,1.2,0c0.1-15-0.1-30,0-44.9C306.3,393.1,305.1,393.1,305,394
			L305,394z"/>
	</g>
</g>
<g>
	<g>
		<path class="st0" d="M305.7,393.2c2.9,0.1,5.4,1.4,8.2,1.9c3.5,0.7,5.7,1.4,8.6,3.8c5.2,4.3,6,10.3,6.5,16.8
			c0.4,6.1-0.8,13-5.5,17.3c-4,3.7-12.3,6.2-17.5,5.2c-0.8-0.1-1.1,1-0.3,1.2c5.6,1.1,13.3-1.1,17.7-4.7c5.1-4.2,7.1-10.8,7-17.2
			c-0.1-6.9-1-14.2-6.4-19c-2.5-2.3-5-3.8-8.4-4.5c-3.3-0.6-6.5-2-9.8-2.1C304.9,392,304.9,393.2,305.7,393.2L305.7,393.2z"/>
	</g>
</g>
<g>
	<g>
		<path class="st0" d="M287.6,394.6c1.7-0.9,3.4-1.9,5-2.8c0.7-0.4,0.1-1.5-0.6-1.1c-1.7,0.9-3.4,1.9-5,2.8
			C286.3,393.9,286.9,395,287.6,394.6L287.6,394.6z"/>
	</g>
</g>
<g>
	<g>
		<path class="st0" d="M263.4,423.3c1.7-0.9,3.4-1.9,5-2.8c0.7-0.4,0.1-1.5-0.6-1.1c-1.7,0.9-3.4,1.9-5,2.8
			C262.1,422.6,262.7,423.7,263.4,423.3L263.4,423.3z"/>
	</g>
</g>
<g>
	<g>
		<path class="st0" d="M301,396c1.7-0.9,3.4-1.9,5-2.8c0.7-0.4,0.1-1.5-0.6-1.1c-1.7,0.9-3.4,1.9-5,2.8
			C299.7,395.3,300.3,396.4,301,396L301,396z"/>
	</g>
</g>
<g>
	<g>
		<path class="st0" d="M301,442.9c1.7-0.9,3.4-1.9,5-2.8c0.7-0.4,0.1-1.5-0.6-1.1c-1.7,0.9-3.4,1.9-5,2.8
			C299.7,442.2,300.3,443.3,301,442.9L301,442.9z"/>
	</g>
</g>
<ellipse transform="matrix(7.088904e-02 -0.9975 0.9975 7.088904e-02 -143.2896 687.6458)" class="st1" cx="297.5" cy="420.7" rx="46.4" ry="46.4"/>
<g>
	<g>
		<path d="M285.1,396.1c0,11.4,1.4,23.5-0.1,34.9c-0.9,6.7-8,15.3-14.4,8c-3.5-4-5-9.8-5.6-14.9c-0.3-2.4-4.1-2.4-3.8,0
			c1.3,9.7,8.4,28.4,21.3,19.1c5.7-4,6.4-11.1,6.5-17.5c0.1-9.9-0.2-19.7-0.2-29.5C288.9,393.7,285.1,393.7,285.1,396.1L285.1,396.1
			z"/>
	</g>
</g>
<g>
	<g>
		<path d="M298.1,397.8c-0.1,15.1-0.2,30.1-0.3,45.2c0,2.4,3.7,2.4,3.8,0c0.1-15.1,0.2-30.1,0.3-45.2
			C301.9,395.4,298.2,395.4,298.1,397.8L298.1,397.8z"/>
	</g>
</g>
<g>
	<g>
		<path d="M300.3,399.4c5.9-0.2,11.7,0.1,16.4,3.9c4.8,3.9,5.5,9.1,6,15c1.1,13-8.5,26.3-22.7,23.6c-2.4-0.4-3.4,3.2-1,3.6
			c15.5,2.9,28.3-10.2,27.6-25.4c-0.3-6.6-1.1-13.7-6.1-18.5c-5.7-5.4-12.4-6.3-20.1-6C297.9,395.7,297.9,399.5,300.3,399.4
			L300.3,399.4z"/>
	</g>
</g>
</svg>
